<?xml version="1.0" encoding="iso-8859-1"?>
<!-- Generator: Adobe Illustrator 19.1.0, SVG Export Plug-In . SVG Version: 6.00 Build 0)  -->
<svg xmlns="http://www.w3.org/2000/svg" xmlns:xlink="http://www.w3.org/1999/xlink" version="1.1" id="Capa_1" x="0px" y="0px" viewBox="0 0 333.701 333.701" style="enable-background:new 0 0 333.701 333.701;" xml:space="preserve" width="512px" height="512px">
<g>
	<path d="M166.828,312.996L25.932,172.101c-34.576-34.576-34.576-90.837,0-125.42C42.681,29.933,64.95,20.704,88.639,20.704   s45.965,9.229,62.713,25.977l15.476,15.476l15.476-15.476c16.748-16.748,39.024-25.977,62.713-25.977s45.952,9.229,62.707,25.977   c16.755,16.748,25.977,39.024,25.977,62.713s-9.229,45.958-25.977,62.707L166.828,312.996z M88.639,33.558   c-20.257,0-39.3,7.892-53.619,22.211c-29.563,29.57-29.563,77.675,0,107.245l131.814,131.808l131.802-131.808   c14.325-14.325,22.211-33.362,22.211-53.619s-7.892-39.3-22.211-53.626c-14.325-14.325-33.362-22.211-53.619-22.211   s-39.3,7.892-53.626,22.211l-24.563,24.563l-24.563-24.563C127.939,41.45,108.896,33.558,88.639,33.558z" fill="#eb9b29"/>
</g>
<g>
</g>
<g>
</g>
<g>
</g>
<g>
</g>
<g>
</g>
<g>
</g>
<g>
</g>
<g>
</g>
<g>
</g>
<g>
</g>
<g>
</g>
<g>
</g>
<g>
</g>
<g>
</g>
<g>
</g>
</svg>
